<?xml version="1.0" encoding="UTF-8" standalone="no"?>
<!DOCTYPE svg PUBLIC "-//W3C//DTD SVG 1.1//EN" "http://www.w3.org/Graphics/SVG/1.1/DTD/svg11.dtd">
<svg width="100%" height="100%" viewBox="0 0 1371 2463" version="1.1" xmlns="http://www.w3.org/2000/svg" xmlns:xlink="http://www.w3.org/1999/xlink" xml:space="preserve" xmlns:serif="http://www.serif.com/" style="fill-rule:evenodd;clip-rule:evenodd;stroke-linejoin:round;stroke-miterlimit:2;">
    <g transform="matrix(4.16667,0,0,4.16667,0,0)">
        <g transform="matrix(1,0,0,1,0,60.594)">
            <path d="M36.634,443.807L51.288,443.807L51.288,459.035C51.288,463.065 47.991,466.362 43.961,466.362C39.931,466.362 36.634,463.065 36.634,459.035L36.634,443.807ZM127.429,443.807L142.082,443.807L142.082,459.035C142.082,463.065 138.785,466.362 134.756,466.362C130.726,466.362 127.429,463.065 127.429,459.035L127.429,443.807ZM278.562,443.807L293.215,443.807L293.215,459.035C293.215,463.065 289.919,466.362 285.888,466.362C281.857,466.362 278.562,463.065 278.562,459.035L278.562,443.807ZM187.768,443.807L202.421,443.807L202.421,459.035C202.421,463.065 199.124,466.362 195.094,466.362C191.064,466.362 187.768,463.065 187.768,459.035L187.768,443.807Z" style="fill:rgb(52,46,43);"/>
        </g>
        <g transform="matrix(1,0,0,1,0,60.594)">
            <path d="M162.49,0.29L168.448,7.737C216.518,67.821 232.886,148.391 212.869,226.406L119.512,94.341C123.352,78.706 153.576,20.504 162.49,0.29Z" style="fill:rgb(253,186,17);"/>
        </g>
        <g transform="matrix(1,0,0,1,0,60.594)">
            <path d="M52.772,139.831C147.378,172.895 153.097,284.839 129.095,375.44L139.891,375.44L199.711,285.144L152.772,79.497L52.772,139.831Z" style="fill:rgb(225,149,37);"/>
        </g>
        <g transform="matrix(1,0,0,1,0,60.594)">
            <path d="M52.772,139.831C139.698,175.768 153.097,284.839 129.095,375.44L134.492,375.44C187.458,288.516 162.811,182.862 114.441,136.335L72.774,127.762L52.772,139.831Z" style="fill:rgb(207,137,42);"/>
        </g>
        <g transform="matrix(1,0,0,1,0,60.594)">
            <path d="M160.251,177.747C192.014,238.612 183.11,312.317 139.891,375.44L186.437,375.44C238.577,296.424 261.489,177.561 228.061,91.507L170.134,119.144L160.251,177.747Z" style="fill:rgb(253,186,17);"/>
        </g>
        <g transform="matrix(1,0,0,1,0,60.594)">
            <path d="M160.251,177.747C192.014,238.612 183.11,312.317 139.891,375.44L163.163,375.44C205.819,324.127 227.602,173.965 174.323,119.827L169.301,124.088L160.251,177.747Z" style="fill:rgb(246,165,28);"/>
        </g>
        <g transform="matrix(1,0,0,1,0,60.594)">
            <path d="M162.49,0.29L175.088,59.205L228.061,91.507L174.323,119.827L160.251,177.747L114.441,136.335L52.772,139.831L78.197,85.916L54.155,30.156L115.679,38.247L162.49,0.29Z" style="fill:rgb(252,221,47);"/>
        </g>
        <g transform="matrix(1,0,0,1,0,60.594)">
            <path d="M196.839,107.961L174.323,119.827L171.847,130.02L125.373,146.217L114.715,136.582L196.839,107.961ZM191.648,69.303L65.26,113.35L52.772,139.831L65.578,139.104L218.64,85.762L191.648,69.303ZM168.698,29.325L175.008,58.832L74.441,93.88L78.197,85.916L68.808,64.138L168.698,29.325Z" style="fill:rgb(251,236,82);"/>
        </g>
        <g transform="matrix(1,0,0,1,0,60.594)">
            <rect x="56.041" y="369.192" width="217.793" height="12.643" style="fill:rgb(253,186,17);"/>
        </g>
        <g transform="matrix(1,0,0,1,0,60.594)">
            <path d="M83.337,369.192L118.967,369.192L118.967,381.835L83.337,381.835L83.337,369.192ZM216.943,369.192L245.389,369.192L245.389,381.835L216.943,381.835L216.943,369.192ZM146.837,369.192L164.938,369.192L164.938,381.835L146.837,381.835L146.837,369.192Z" style="fill:rgb(252,221,47);"/>
        </g>
        <g transform="matrix(1,0,0,1,0,60.594)">
            <rect x="25.664" y="381.835" width="278.547" height="71.167" style="fill:rgb(73,43,19);"/>
        </g>
        <g transform="matrix(1,0,0,1,0,60.594)">
            <rect x="25.664" y="381.835" width="187.675" height="71.167" style="fill:rgb(102,62,22);"/>
        </g>
        <g transform="matrix(1,0,0,1,0,60.594)">
            <path d="M66.228,394.387L174.837,394.387C174.837,397.863 177.682,400.708 181.158,400.708L181.158,435.763C177.682,435.763 174.837,438.605 174.837,442.082L66.228,442.082C66.228,438.605 63.384,435.763 59.906,435.763L59.906,400.708C63.384,400.708 66.228,397.863 66.228,394.387Z" style="fill:rgb(225,149,37);"/>
        </g>
        <g transform="matrix(1,0,0,1,0,60.594)">
            <path d="M60.194,394.387L168.804,394.387C168.804,397.863 171.647,400.708 175.124,400.708L175.124,435.763C171.647,435.763 168.804,438.605 168.804,442.082L60.194,442.082C60.194,438.605 57.349,435.763 53.873,435.763L53.873,400.708C57.349,400.708 60.194,397.863 60.194,394.387Z" style="fill:rgb(253,186,17);"/>
        </g>
        <g transform="matrix(1,0,0,1,0,60.594)">
            <path d="M124.979,394.387L97.978,442.084L108.322,442.084L135.322,394.387L124.979,394.387ZM143.654,394.387L158.596,394.387L131.596,442.084L116.655,442.084L143.654,394.387ZM96.246,394.387L116.358,394.387L89.358,442.084L69.245,442.084L96.246,394.387Z" style="fill:rgb(254,205,3);"/>
        </g>
        <g transform="matrix(1,0,0,1,0,60.594)">
            <path d="M164.491,469.522C255.09,469.522 328.982,468.103 328.982,466.361C328.982,464.619 255.09,463.201 164.491,463.201C73.892,463.201 0,464.619 0,466.361C0,468.103 73.892,469.522 164.491,469.522Z" style="fill:rgb(52,46,43);"/>
        </g>
    </g>
</svg>
