<?xml version="1.0" encoding="UTF-8" standalone="no"?>
<!DOCTYPE svg PUBLIC "-//W3C//DTD SVG 1.1//EN" "http://www.w3.org/Graphics/SVG/1.1/DTD/svg11.dtd">
<svg width="100%" height="100%" viewBox="0 0 512 512" version="1.1" xmlns="http://www.w3.org/2000/svg" xmlns:xlink="http://www.w3.org/1999/xlink" xml:space="preserve" xmlns:serif="http://www.serif.com/" style="fill-rule:evenodd;clip-rule:evenodd;stroke-linejoin:round;stroke-miterlimit:2;">
    <g>
        <path d="M480.889,378.847L480.889,421.364C480.889,429.766 473.987,436.668 465.583,436.668C457.179,436.668 450.277,429.766 450.277,421.364L450.277,420.464C402.258,477.185 331.63,512 255.999,512C115.245,512 0,396.754 0,255.999C0,234.39 3.302,212.782 8.704,192.074C10.805,183.97 19.207,178.869 27.311,180.97C35.415,183.071 40.516,191.473 38.415,199.877C33.614,218.184 30.612,237.091 30.612,255.999C30.612,379.947 132.051,481.387 256,481.387C326.526,481.387 393.153,447.874 435.169,392.052L421.064,392.052C412.66,392.052 405.758,385.148 405.758,376.746C405.758,368.342 412.66,361.44 421.064,361.44L465.583,361.44C475.187,361.44 482.389,369.843 480.889,378.847Z" style="fill:rgb(255,82,82);fill-rule:nonzero;"/>
        <path d="M512,255.999C512,277.606 508.698,299.216 503.296,319.924C501.495,326.826 495.493,331.328 488.59,331.328C487.391,331.328 485.888,331.328 484.689,331.028C476.585,328.927 471.484,320.523 473.585,312.121C478.386,293.814 481.388,274.907 481.388,255.999C481.388,132.051 379.949,30.611 256,30.611C185.474,30.611 118.847,65.124 76.831,120.946L90.936,120.946C99.638,120.946 106.543,127.848 106.543,136.252C106.543,144.654 99.639,151.758 91.237,151.758L48.02,151.758C39.017,153.259 29.913,145.856 29.913,136.552L29.913,90.935C29.913,82.531 36.815,75.629 45.219,75.629C53.623,75.629 60.525,82.531 60.525,90.935L60.525,91.534C108.542,34.814 180.37,0 255.999,0C396.754,0 512,115.245 512,255.999Z" style="fill:rgb(255,82,82);fill-rule:nonzero;"/>
    </g>
    <g transform="matrix(1,0,0,1,184.458,86.8513)">
        <path d="M134.44,120.34C119.13,52.8 87.22,34.82 79.08,22.11C75.723,16.511 72.75,10.691 70.18,4.69C69.75,10.69 68.96,14.47 63.86,19.02C53.62,28.15 10.13,63.59 6.47,140.33C3.06,211.88 59.07,256 66.47,260.56C72.16,263.36 79.09,260.62 82.47,258.05C109.47,239.52 146.36,190.12 134.47,120.34" style="fill:rgb(16,170,80);fill-rule:nonzero;"/>
    </g>
    <g transform="matrix(1,0,0,1,184.458,86.8513)">
        <path d="M72.5,222.46C71.09,240.17 70.08,250.46 66.5,260.58C66.5,260.58 68.85,277.44 70.5,295.3L76.34,295.3C77.733,282.723 79.86,270.239 82.71,257.91C75.15,254.19 72.79,238 72.5,222.46Z" style="fill:rgb(184,196,194);fill-rule:nonzero;"/>
    </g>
    <g transform="matrix(1,0,0,1,184.458,86.8513)">
        <path d="M82.7,257.92C75.06,254.39 72.85,237.86 72.51,222.46C74.399,197.057 74.95,171.571 74.16,146.11C73.76,132.75 74.35,22.37 70.87,6.21C73.251,11.683 75.993,16.992 79.08,22.1C87.22,34.82 119.14,52.8 134.44,120.34C146.36,190 109.67,239.27 82.7,257.92Z" style="fill:rgb(18,146,79);fill-rule:nonzero;"/>
    </g>
    <g>
        <path d="M480.889,378.847L480.889,421.364C480.889,429.766 473.987,436.668 465.583,436.668C457.179,436.668 450.277,429.766 450.277,421.364L450.277,420.464C402.258,477.185 331.63,512 255.999,512L255.999,481.387C326.525,481.387 393.152,447.874 435.168,392.052L421.064,392.052C412.66,392.052 405.758,385.148 405.758,376.746C405.758,368.342 412.66,361.44 421.064,361.44L465.583,361.44C475.187,361.44 482.389,369.843 480.889,378.847Z" style="fill:rgb(231,95,123);fill-rule:nonzero;"/>
        <path d="M512,255.999C512,277.606 508.698,299.216 503.296,319.924C501.495,326.826 495.493,331.328 488.59,331.328C487.391,331.328 485.888,331.328 484.689,331.028C476.585,328.927 471.484,320.523 473.585,312.121C478.386,293.814 481.388,274.907 481.388,255.999C481.388,132.051 379.949,30.611 256,30.611L256,0C396.754,0 512,115.245 512,255.999Z" style="fill:rgb(231,95,123);fill-rule:nonzero;"/>
    </g>
</svg>
