<?xml version="1.0" encoding="UTF-8" standalone="no"?>
<!DOCTYPE svg PUBLIC "-//W3C//DTD SVG 1.1//EN" "http://www.w3.org/Graphics/SVG/1.1/DTD/svg11.dtd">
<svg width="100%" height="100%" viewBox="0 0 883 712" version="1.1" xmlns="http://www.w3.org/2000/svg" xmlns:xlink="http://www.w3.org/1999/xlink" xml:space="preserve" xmlns:serif="http://www.serif.com/" style="fill-rule:evenodd;clip-rule:evenodd;stroke-miterlimit:10;">
    <path d="M837.2,34.87C837.2,29.373 832.737,24.91 827.24,24.91L646.3,24.91C640.803,24.91 636.34,29.373 636.34,34.87L636.34,36.64C636.34,42.137 640.803,46.6 646.3,46.6L827.24,46.6C832.737,46.6 837.2,42.137 837.2,36.64L837.2,34.87Z" style="fill:white;"/>
    <path d="M882.19,53.35C882.19,47.853 877.727,43.39 872.23,43.39L691.29,43.39C685.793,43.39 681.33,47.853 681.33,53.35L681.33,55.12C681.33,60.617 685.793,65.08 691.29,65.08L872.23,65.08C877.727,65.08 882.19,60.617 882.19,55.12L882.19,53.35Z" style="fill:white;"/>
    <path d="M805.86,69.42C805.86,63.923 801.397,59.46 795.9,59.46L614.96,59.46C609.463,59.46 605,63.923 605,69.42L605,71.19C605,76.687 609.463,81.15 614.96,81.15L795.9,81.15C801.397,81.15 805.86,76.687 805.86,71.19L805.86,69.42Z" style="fill:white;"/>
    <g transform="matrix(1,0,0,1,0,26.52)">
        <path d="M493.32,283.14C493.32,277.643 488.857,273.18 483.36,273.18L302.42,273.18C296.923,273.18 292.46,277.643 292.46,283.14L292.46,284.91C292.46,290.407 296.923,294.87 302.42,294.87L483.36,294.87C488.857,294.87 493.32,290.407 493.32,284.91L493.32,283.14Z" style="fill:white;"/>
    </g>
    <g transform="matrix(1,0,0,1,0,26.52)">
        <path d="M538.31,301.62C538.31,296.123 533.847,291.66 528.35,291.66L347.41,291.66C341.913,291.66 337.45,296.123 337.45,301.62L337.45,303.39C337.45,308.887 341.913,313.35 347.41,313.35L528.35,313.35C533.847,313.35 538.31,308.887 538.31,303.39L538.31,301.62Z" style="fill:white;"/>
    </g>
    <g transform="matrix(1,0,0,1,0,26.52)">
        <path d="M461.98,317.68C461.98,312.183 457.517,307.72 452.02,307.72L271.08,307.72C265.583,307.72 261.12,312.183 261.12,317.68L261.12,319.45C261.12,324.947 265.583,329.41 271.08,329.41L452.02,329.41C457.517,329.41 461.98,324.947 461.98,319.45L461.98,317.68Z" style="fill:white;"/>
    </g>
    <g opacity="0.5">
        <g transform="matrix(1,0,0,1,-158.5,-94.07)">
            <path d="M1011,780.22C1006.18,780.22 895.3,828.43 766.75,701.48C696.94,632.55 628.56,625.21 580.64,632.9C551.19,637.62 524.3,652 503,672.83C485.87,689.65 444.41,712.57 347.27,706.31C197.83,696.67 158.46,803.53 158.46,803.53L1041.46,803.53C1041.46,803.53 1015.79,780.22 1011,780.22Z" style="fill:url(#_Linear1);fill-rule:nonzero;"/>
        </g>
    </g>
    <g transform="matrix(1,0,0,1,-158.5,-94.07)">
        <path d="M158.5,805.93C158.5,805.93 197.87,699.07 347.31,708.71C444.45,715 485.92,692.05 503,675.24C524.26,654.37 551.14,640.03 580.56,635.31C628.48,627.62 696.87,634.96 766.67,703.89C895.22,830.84 1006.1,782.63 1010.92,782.63C1015.74,782.63 1041.45,805.93 1041.45,805.93L158.5,805.93Z" style="fill:white;fill-rule:nonzero;"/>
    </g>
    <g transform="matrix(1,0,0,1,-158.5,-94.07)">
        <path d="M158.5,805.93C158.5,805.93 197.87,699.07 347.31,708.71C444.45,715 485.92,692.05 503,675.24C524.26,654.37 551.14,640.03 580.56,635.31C628.48,627.62 696.87,634.96 766.67,703.89C895.22,830.84 1006.1,782.63 1010.92,782.63C1015.74,782.63 1041.45,805.93 1041.45,805.93L158.5,805.93Z" style="fill:white;fill-opacity:0.02;fill-rule:nonzero;"/>
    </g>
    <g transform="matrix(1,0,0,1,0,26.52)">
        <path d="M292.45,133.69C292.45,128.193 287.987,123.73 282.49,123.73L101.55,123.73C96.053,123.73 91.59,128.193 91.59,133.69L91.59,135.46C91.59,140.957 96.053,145.42 101.55,145.42L282.49,145.42C287.987,145.42 292.45,140.957 292.45,135.46L292.45,133.69Z" style="fill:white;"/>
    </g>
    <g transform="matrix(1,0,0,1,0,26.52)">
        <path d="M337.45,152.17C337.45,146.673 332.987,142.21 327.49,142.21L146.55,142.21C141.053,142.21 136.59,146.673 136.59,152.17L136.59,153.94C136.59,159.437 141.053,163.9 146.55,163.9L327.49,163.9C332.987,163.9 337.45,159.437 337.45,153.94L337.45,152.17Z" style="fill:white;"/>
    </g>
    <g transform="matrix(1,0,0,1,0,26.52)">
        <path d="M261.12,168.24C261.12,162.743 256.657,158.28 251.16,158.28L70.22,158.28C64.723,158.28 60.26,162.743 60.26,168.24L60.26,170.01C60.26,175.507 64.723,179.97 70.22,179.97L251.16,179.97C256.657,179.97 261.12,175.507 261.12,170.01L261.12,168.24Z" style="fill:white;"/>
    </g>
    <g opacity="0.5">
        <circle cx="199.26" cy="81.15" r="81.15" style="fill:url(#_Linear2);"/>
    </g>
    <g transform="matrix(1,0,0,1,0,26.52)">
        <circle cx="199.26" cy="81.15" r="72.31" style="fill:rgb(252,204,99);"/>
    </g>
    <g transform="matrix(1.40651,0,0,1.40651,-93.5818,-259.104)">
        <rect x="160.98" y="590.63" width="62.9" height="46.73" style="fill:rgb(108,99,255);"/>
    </g>
    <g transform="matrix(1.40651,0,0,1.40651,-316.514,-391.415)">
        <path d="M314,682.8L349.15,647.65C349.664,647.135 350.362,646.845 351.09,646.845C351.818,646.845 352.516,647.135 353.03,647.65L387.9,682.52C388.415,683.034 388.705,683.732 388.705,684.46C388.705,685.961 387.471,687.197 385.97,687.2L315.97,687.48C315.958,687.48 315.946,687.48 315.935,687.48C314.432,687.48 313.195,686.243 313.195,684.74C313.195,684.012 313.485,683.314 314,682.8Z" style="fill:rgb(108,99,255);fill-rule:nonzero;"/>
    </g>
    <g transform="matrix(1.40651,0,0,1.40651,-316.514,-391.415)">
        <path d="M314,682.8L349.15,647.65C349.664,647.135 350.362,646.845 351.09,646.845C351.818,646.845 352.516,647.135 353.03,647.65L387.9,682.52C388.415,683.034 388.705,683.732 388.705,684.46C388.705,685.961 387.471,687.197 385.97,687.2L315.97,687.48C315.958,687.48 315.946,687.48 315.935,687.48C314.432,687.48 313.195,686.243 313.195,684.74C313.195,684.012 313.485,683.314 314,682.8Z" style="fill-opacity:0.05;fill-rule:nonzero;"/>
    </g>
    <g transform="matrix(1.40651,0,0,1.40651,-93.5818,-259.104)">
        <path d="M191.62,616.28L192.88,616.28C196.775,616.28 199.98,619.485 199.98,623.38L199.98,637.38L184.52,637.38L184.52,623.38C184.52,619.485 187.725,616.28 191.62,616.28Z" style="fill:white;fill-rule:nonzero;"/>
    </g>
    <g transform="matrix(1.40651,0,0,1.40651,-93.5818,-259.104)">
        <circle cx="192.6" cy="562.17" r="3.87" style="fill:white;"/>
    </g>
    <g transform="matrix(1.40651,0,0,1.40651,-93.5818,-259.104)">
        <rect x="165.9" y="596.6" width="14.76" height="11.24" style="fill:white;"/>
    </g>
    <g transform="matrix(1.40651,0,0,1.40651,-93.5818,-259.104)">
        <rect x="172.57" y="596.6" width="1.41" height="11.24" style="fill:rgb(108,99,255);"/>
    </g>
    <g transform="matrix(1.40651,0,0,1.40651,-93.5818,-259.104)">
        <rect x="205.25" y="596.6" width="14.76" height="11.24" style="fill:white;"/>
    </g>
    <g transform="matrix(1.40651,0,0,1.40651,-93.5818,-259.104)">
        <rect x="211.93" y="596.6" width="1.41" height="11.24" style="fill:rgb(108,99,255);"/>
    </g>
    <g opacity="0.2">
        <g transform="matrix(1.65457,0,0,1.65457,-565.006,-531.386)">
            <path d="M611,635.22C610.87,635.19 611,635.22 611,635.22Z" style="fill:url(#_Linear3);fill-rule:nonzero;"/>
        </g>
    </g>
    <g opacity="0.2">
        <g transform="matrix(1.65457,0,0,1.65457,-565.006,-531.386)">
            <path d="M612.45,664.26L612.57,664.26C612.621,664.241 612.656,664.194 612.66,664.14C612.668,664.1 612.668,664.06 612.66,664.02L612.66,663.92C612.56,663.68 612.33,663.36 612.2,663.08L612.14,662.93C612.134,662.863 612.134,662.797 612.14,662.73C612.146,662.663 612.14,662.67 612.14,662.64L614.3,655.55L614.35,655.38C614.35,655.38 617.1,656.56 617.81,658.92C618.219,660.064 618.24,661.312 617.87,662.47L617.82,662.59L617.87,662.59L617.87,663.89L620.87,663.89C621.08,663.79 620.8,663.53 620.52,663.27L620.45,663.2L620.27,663.01C620.219,662.952 620.175,662.888 620.14,662.82L620.09,662.7L620.09,662.63L620,662.63L620,662.52C620.762,658.99 619.595,655.308 616.94,652.86C617.663,650.703 617.663,648.367 616.94,646.21C617.22,646.01 622.67,642.07 622.63,636.97C622.646,636.697 622.646,636.423 622.63,636.15C622.614,635.877 623.1,635.76 622.63,635.05L622.63,634.99L622.25,634.99C622.034,635.011 621.826,635.08 621.64,635.19C621.454,635.3 621.33,636.19 621.64,636.45L621.56,636.45C621.56,636.45 618.33,643.45 616.17,644.45L616.02,644.36L616.02,643.45C616.022,643.41 616.022,643.37 616.02,643.33C616.022,643.293 616.022,643.257 616.02,643.22C616.262,643.094 616.482,642.928 616.67,642.73C616.742,642.654 616.809,642.574 616.87,642.49L616.95,642.37L617.03,642.23L617.09,642.1C617.133,642.006 617.17,641.909 617.2,641.81L617.2,641.26C617.2,640.973 617.149,640.689 617.05,640.42C617.05,640.347 617.02,640.273 616.96,640.2L616.91,640.09L616.84,639.97C616.894,639.904 616.958,639.846 617.03,639.8C617.168,639.722 617.322,639.675 617.48,639.66L617.95,639.66C618.007,639.637 618.061,639.607 618.11,639.57C618.186,639.506 618.275,639.458 618.37,639.43L617.12,639.43L616.96,639.36C617.043,639.393 617.131,639.414 617.22,639.42L617.62,639.42L617.68,639.37L617.68,639.29L617.5,639.29C617.364,639.309 617.226,639.309 617.09,639.29L616.67,639.29L616.55,639.24C616.622,639.266 616.698,639.28 616.775,639.28C617.137,639.28 617.435,638.982 617.435,638.62C617.435,638.343 617.26,638.094 617,638L617.11,637.93C617.225,637.831 617.297,637.691 617.31,637.54C617.324,637.477 617.324,637.413 617.31,637.35L617.24,637.41L617.18,637.41C616.991,637.543 616.761,637.607 616.53,637.59L616.45,637.59C616.246,637.538 616.048,637.464 615.86,637.37L615.69,637.31L614.78,637.31C614.033,637.335 613.321,637.635 612.78,638.15C612.655,638.273 612.541,638.407 612.44,638.55C612.367,637.818 612.503,637.079 612.83,636.42L612.59,636.42L612.5,636.59C612.547,636.349 612.639,636.118 612.77,635.91L612.71,635.91C612.984,635.604 612.984,635.136 612.71,634.83C612.24,634.12 611.37,634.67 611.37,634.67C611.3,634.901 611.253,635.139 611.23,635.38L611.09,635.32C610.93,635.86 609.15,642.06 612.09,646.02C612.086,646.103 612.086,646.187 612.09,646.27L612.09,652.95L610.09,662.11L609.7,663.84L612.51,664.3L612.45,664.26ZM612.95,642.61C613.109,642.742 613.283,642.852 613.47,642.94C613.464,643.003 613.464,643.067 613.47,643.13L613.47,644L613.3,644.08C613.17,643.65 613.06,643.15 612.94,642.61L612.95,642.61Z" style="fill:url(#_Linear4);fill-rule:nonzero;"/>
        </g>
    </g>
    <g transform="matrix(1.65457,0,0,1.65457,-565.006,-531.386)">
        <path d="M622.66,636.93C622.66,636.93 623.18,636.49 622.66,635.71C622.14,634.93 621.18,635.54 621.18,635.54C621.18,635.54 620.83,636.67 621.18,636.93C621.53,637.19 622.66,636.93 622.66,636.93Z" style="fill:rgb(202,112,112);fill-rule:nonzero;"/>
    </g>
    <g id="_39458adb-bcd5-4769-9abe-182f7ae0ca71" serif:id="39458adb-bcd5-4769-9abe-182f7ae0ca71" transform="matrix(1.65457,0,0,1.65457,-565.006,-531.386)">
        <path d="M617.28,666.09L619.68,666.09C619.662,666.32 619.746,666.547 619.91,666.71C620.23,667.08 620.91,667.53 620.58,667.71L617.28,667.71L617.28,666.09Z" style="fill:rgb(0,105,92);fill-rule:nonzero;"/>
    </g>
    <g transform="matrix(1.65457,0,0,1.65457,-565.006,-531.386)">
        <path d="M619.73,666.71C619.566,666.547 619.482,666.32 619.5,666.09L619.67,666.09C619.652,666.32 619.736,666.547 619.9,666.71C620.22,667.08 620.9,667.53 620.57,667.71L620.4,667.71C620.7,667.53 620.05,667.08 619.73,666.71Z" style="fill:white;fill-opacity:0.2;fill-rule:nonzero;"/>
    </g>
    <g id="_24b3a5d5-99f8-4317-aac1-7589e0408752" serif:id="24b3a5d5-99f8-4317-aac1-7589e0408752" transform="matrix(1.65457,0,0,1.65457,-565.006,-531.386)">
        <path d="M608.72,665.6L611,666C610.938,666.267 610.974,666.547 611.1,666.79C611.35,667.3 611.9,667.96 611.57,668.1L608.32,667.57L608.72,665.6Z" style="fill:rgb(0,105,92);fill-rule:nonzero;"/>
    </g>
    <g transform="matrix(1.65457,0,0,1.65457,-565.006,-531.386)">
        <path d="M609.82,635.87C609.82,635.87 607.25,643.98 611.56,648.47L612.81,647.47C612.81,647.47 610.26,638.62 611.69,636.54C609.17,635.75 609.82,635.87 609.82,635.87Z" style="fill:rgb(0,105,92);fill-rule:nonzero;"/>
    </g>
    <g transform="matrix(1.65457,0,0,1.65457,-565.006,-531.386)">
        <path d="M611.6,636.58C611.6,636.58 612.12,636.14 611.6,635.36C611.08,634.58 610.12,635.19 610.12,635.19C610.12,635.19 609.77,636.32 610.12,636.58C610.47,636.84 611.6,636.58 611.6,636.58Z" style="fill:rgb(202,112,112);fill-rule:nonzero;"/>
    </g>
    <g transform="matrix(1.65457,0,0,1.65457,-565.006,-531.386)">
        <path d="M610.9,666.75C610.774,666.507 610.738,666.227 610.8,665.96L608.72,665.62L611,666C610.938,666.267 610.974,666.547 611.1,666.79C611.35,667.3 611.9,667.96 611.57,668.1L611.43,668.1C611.65,667.86 611.14,667.24 610.9,666.75Z" style="fill:white;fill-opacity:0.2;fill-rule:nonzero;"/>
    </g>
    <g transform="matrix(-1.65457,-1.26692e-15,1.26692e-15,-1.65457,1465.92,1603.77)">
        <path d="M614.95,644.097C614.95,643.723 614.647,643.42 614.273,643.42L613.187,643.42C612.813,643.42 612.51,643.723 612.51,644.097L612.51,646.363C612.51,646.737 612.813,647.04 613.187,647.04L614.273,647.04C614.647,647.04 614.95,646.737 614.95,646.363L614.95,644.097Z" style="fill:rgb(202,112,112);"/>
    </g>
    <g transform="matrix(1.65457,0,0,1.65457,-565.006,-531.386)">
        <path d="M612.63,648C612.63,648 610.11,639.26 611.48,637.11L611.74,637.11C610.31,639.19 612.86,648.04 612.86,648.04L611.61,649.04L611.5,648.92L612.63,648Z" style="fill:white;fill-opacity:0.2;fill-rule:nonzero;"/>
    </g>
    <g transform="matrix(1.65457,0,0,1.65457,-302.757,-375.741)">
        <circle cx="455.19" cy="547.92" r="2.7" style="fill:rgb(202,112,112);"/>
    </g>
    <g transform="matrix(1.65457,0,0,1.65457,-565.006,-531.386)">
        <path d="M614.65,645.82L614.65,644.64C614.659,644.554 614.659,644.466 614.65,644.38C615.552,643.919 616.121,642.988 616.121,641.976C616.121,640.551 614.993,639.359 613.57,639.28L613.723,639.28C615.204,639.28 616.423,640.499 616.423,641.98C616.423,642.989 615.857,643.918 614.96,644.38C614.969,644.466 614.969,644.554 614.96,644.64L614.96,645.82C614.96,646.489 614.409,647.04 613.74,647.04L613.59,647.04C614.198,646.96 614.655,646.433 614.65,645.82Z" style="fill:white;fill-opacity:0.2;fill-rule:nonzero;"/>
    </g>
    <g transform="matrix(1.65457,0,0,1.65457,-565.006,-531.386)">
        <path d="M610.95,655.45C610.95,655.45 616.16,656.04 616.35,655.45C617.166,653.048 617.166,650.442 616.35,648.04C616.35,646.559 615.131,645.34 613.65,645.34C612.169,645.34 610.95,646.559 610.95,648.04L610.95,655.45Z" style="fill:rgb(0,105,92);fill-rule:nonzero;"/>
    </g>
    <g transform="matrix(1.65457,0,0,1.65457,-565.006,-531.386)">
        <path d="M610.95,655.45L608.6,666.25L610.95,666.25L613.39,658.25C613.39,658.25 616.39,659.56 617.22,662.17C617.723,663.487 617.723,664.943 617.22,666.26L619.75,666.26L619.75,666.14C620.599,662.226 619.293,658.144 616.33,655.45" style="fill:rgb(38,50,56);fill-rule:nonzero;"/>
    </g>
    <g transform="matrix(1.65457,0,0,1.65457,-565.006,-531.386)">
        <path d="M616,655.45C616.816,653.048 616.816,650.442 616,648.04C615.998,646.625 614.883,645.439 613.47,645.35L613.64,645.35C615.121,645.35 616.34,646.569 616.34,648.05C617.156,650.452 617.156,653.058 616.34,655.46C616.27,655.67 615.56,655.73 614.67,655.72C615.44,655.7 616,655.63 616,655.45Z" style="fill:white;fill-opacity:0.2;fill-rule:nonzero;"/>
    </g>
    <g transform="matrix(1.65457,0,0,1.65457,-565.006,-531.386)">
        <path d="M616.39,648C616.39,648 623.39,643.12 622.66,636.94L621.1,636.94C621.1,636.94 617.35,645.04 614.96,645.83C612.57,646.62 616.39,648 616.39,648Z" style="fill:rgb(0,105,92);fill-rule:nonzero;"/>
    </g>
    <g opacity="0.2">
        <g transform="matrix(1.65457,0,0,1.65457,-565.006,-531.386)">
            <path d="M613.34,658.42L610.95,666.29L610.6,666.29L613.04,658.29L613.34,658.42Z" style="fill:white;fill-rule:nonzero;"/>
        </g>
        <g transform="matrix(1.65457,0,0,1.65457,-565.006,-531.386)">
            <path d="M616,655.49L616.35,655.49C619.313,658.184 620.619,662.266 619.77,666.18L619.77,666.3L619.42,666.3L619.42,666.18C620.269,662.266 618.963,658.184 616,655.49Z" style="fill:white;fill-rule:nonzero;"/>
        </g>
    </g>
    <g transform="matrix(1.65457,0,0,1.65457,-565.006,-531.386)">
        <path d="M622.4,637L622.66,637C623.36,643.19 616.39,648.06 616.39,648.06L616.22,647.99C617,647.42 623.05,642.79 622.4,637Z" style="fill:white;fill-opacity:0.2;fill-rule:nonzero;"/>
    </g>
    <g transform="matrix(1.65457,0,0,1.65457,-565.006,-531.386)">
        <path d="M615.84,640.78C615.691,641.129 615.587,641.495 615.53,641.87C615.39,642.644 614.942,643.33 614.29,643.77C613.918,643.972 613.503,644.085 613.08,644.1C612.434,644.18 611.784,643.984 611.29,643.56C611.007,643.252 610.816,642.871 610.74,642.46C610.467,641.219 610.844,639.921 611.74,639.02C612.654,638.137 613.997,637.853 615.19,638.29C615.401,638.393 615.622,638.474 615.85,638.53C616.216,638.601 616.594,638.48 616.85,638.21C616.868,638.268 616.878,638.329 616.878,638.39C616.878,638.719 616.607,638.99 616.278,638.99C616.275,638.99 616.273,638.99 616.27,638.99C616.673,639.184 617.138,639.209 617.56,639.06C617.317,639.574 616.71,639.816 616.18,639.61C616.67,639.829 617.203,639.938 617.74,639.93C617.63,639.93 617.41,640.14 617.27,640.18C617.097,640.195 616.923,640.195 616.75,640.18C616.355,640.183 615.998,640.418 615.84,640.78Z" style="fill:rgb(38,50,56);fill-rule:nonzero;"/>
    </g>
    <g opacity="0.2">
        <g transform="matrix(1.65457,0,0,1.65457,-565.006,-531.386)">
            <path d="M616.2,639C616.401,639.095 616.618,639.15 616.84,639.16C616.551,639.18 616.261,639.125 616,639C616.001,639 616.001,639 616.002,639C616.337,639 616.612,638.725 616.612,638.39C616.612,638.373 616.611,638.357 616.61,638.34L616.75,638.22C616.768,638.278 616.778,638.339 616.778,638.4C616.778,638.721 616.521,638.988 616.2,639Z" style="fill:white;fill-rule:nonzero;"/>
        </g>
        <g transform="matrix(1.65457,0,0,1.65457,-565.006,-531.386)">
            <path d="M615.66,638.53C615.432,638.474 615.211,638.393 615,638.29C614.681,638.163 614.343,638.092 614,638.08C614.413,638.066 614.825,638.137 615.21,638.29C615.421,638.393 615.642,638.474 615.87,638.53L615.96,638.53C615.861,638.545 615.759,638.545 615.66,638.53Z" style="fill:white;fill-rule:nonzero;"/>
        </g>
        <g transform="matrix(1.65457,0,0,1.65457,-565.006,-531.386)">
            <path d="M617,640.18C617.14,640.18 617.36,639.93 617.47,639.93C616.933,639.938 616.4,639.829 615.91,639.61C616.022,639.654 616.14,639.678 616.26,639.68C616.704,639.849 617.176,639.93 617.65,639.92C617.54,639.92 617.32,640.13 617.18,640.17C617.061,640.189 616.939,640.189 616.82,640.17L617,640.18Z" style="fill:white;fill-rule:nonzero;"/>
        </g>
        <g transform="matrix(1.65457,0,0,1.65457,-565.006,-531.386)">
            <path d="M612.9,644.1C613.323,644.085 613.738,643.972 614.11,643.77C614.762,643.33 615.21,642.644 615.35,641.87C615.407,641.495 615.511,641.129 615.66,640.78C615.82,640.453 616.146,640.238 616.51,640.22L616.68,640.22C616.316,640.238 615.99,640.453 615.83,640.78C615.681,641.129 615.577,641.495 615.52,641.87C615.38,642.644 614.932,643.33 614.28,643.77C613.908,643.972 613.493,644.085 613.07,644.1L612.9,644.1Z" style="fill:white;fill-rule:nonzero;"/>
        </g>
        <g transform="matrix(1.65457,0,0,1.65457,-565.006,-531.386)">
            <path d="M616.41,639.69C616.784,639.664 617.12,639.449 617.3,639.12L617.5,639.06C617.305,639.477 616.868,639.729 616.41,639.69Z" style="fill:white;fill-rule:nonzero;"/>
        </g>
    </g>
    <g transform="matrix(1.65457,0,0,1.65457,-565.006,-531.386)">
        <path d="M622.49,636.93C622.49,636.93 623.01,636.49 622.49,635.71C622.351,635.479 622.109,635.33 621.84,635.31C622.167,635.273 622.488,635.429 622.66,635.71C623.18,636.49 622.66,636.93 622.66,636.93C622.332,637.002 621.996,637.039 621.66,637.04C621.939,637.026 622.217,636.989 622.49,636.93Z" style="fill:white;fill-opacity:0.2;fill-rule:nonzero;"/>
    </g>
    <g transform="matrix(1.65457,0,0,1.65457,-565.006,-531.386)">
        <path d="M634.41,627.22C634.41,627.22 631.84,635.33 636.15,639.82L637.4,638.82C637.4,638.82 634.85,629.97 636.28,627.89C633.76,627.1 634.41,627.22 634.41,627.22Z" style="fill:rgb(255,82,82);fill-rule:nonzero;"/>
    </g>
    <g transform="matrix(1.65457,0,0,1.65457,-565.006,-531.386)">
        <path d="M636.19,627.94C636.19,627.94 636.71,627.5 636.19,626.72C635.67,625.94 634.71,626.55 634.71,626.55C634.71,626.55 634.36,627.68 634.71,627.94C635.06,628.2 636.19,627.94 636.19,627.94Z" style="fill:rgb(246,185,173);fill-rule:nonzero;"/>
    </g>
    <g transform="matrix(-1.65457,-1.26692e-15,1.26692e-15,-1.65457,1547.3,1575.18)">
        <path d="M639.54,635.457C639.54,635.083 639.237,634.78 638.863,634.78L637.777,634.78C637.403,634.78 637.1,635.083 637.1,635.457L637.1,637.723C637.1,638.097 637.403,638.4 637.777,638.4L638.863,638.4C639.237,638.4 639.54,638.097 639.54,637.723L639.54,635.457Z" style="fill:rgb(246,185,173);"/>
    </g>
    <g transform="matrix(1.65457,0,0,1.65457,-565.006,-531.386)">
        <path d="M637.22,639.39C637.22,639.39 634.7,630.65 636.07,628.5L636.33,628.5C634.9,630.58 637.45,639.43 637.45,639.43L636.2,640.43L636.09,640.31L637.22,639.39Z" style="fill:white;fill-opacity:0.2;fill-rule:nonzero;"/>
    </g>
    <g transform="matrix(1.65457,0,0,1.65457,-302.757,-375.741)">
        <circle cx="479.78" cy="539.27" r="2.7" style="fill:rgb(246,185,173);"/>
    </g>
    <g transform="matrix(1.65457,0,0,1.65457,-565.006,-531.386)">
        <path d="M639.24,637.17L639.24,636C639.249,635.914 639.249,635.826 639.24,635.74C640.142,635.279 640.711,634.348 640.711,633.336C640.711,631.911 639.583,630.719 638.16,630.64L638.313,630.64C639.794,630.64 641.013,631.859 641.013,633.34C641.013,634.349 640.447,635.278 639.55,635.74C639.559,635.826 639.559,635.914 639.55,636L639.55,637.18C639.55,637.849 638.999,638.4 638.33,638.4L638.18,638.4C638.791,638.319 639.25,637.787 639.24,637.17Z" style="fill:white;fill-opacity:0.2;fill-rule:nonzero;"/>
    </g>
    <g transform="matrix(1.65457,0,0,1.65457,-565.006,-531.386)">
        <path d="M635.54,646.8C635.54,646.8 640.75,647.39 640.94,646.8C641.56,644.9 639.94,642.8 640.73,641.8C641.226,641.082 641.306,640.152 640.94,639.36C640.94,637.879 639.721,636.66 638.24,636.66C636.759,636.66 635.54,637.879 635.54,639.36L635.54,646.8Z" style="fill:rgb(255,82,82);fill-rule:nonzero;"/>
    </g>
    <g transform="matrix(1.65457,0,0,1.65457,-565.006,-531.386)">
        <path d="M640.74,641.84C641.236,641.122 641.316,640.192 640.95,639.4C640.95,637.919 639.731,636.7 638.25,636.7L638.08,636.7C639.493,636.789 640.608,637.975 640.61,639.39C640.976,640.182 640.896,641.112 640.4,641.83C639.56,642.83 641.23,644.89 640.61,646.83C640.55,647.01 640.01,647.08 639.3,647.09C640.18,647.09 640.89,647.04 640.96,646.83C641.57,644.9 639.9,642.84 640.74,641.84Z" style="fill:white;fill-opacity:0.2;fill-rule:nonzero;"/>
    </g>
    <g transform="matrix(1.65457,0,0,1.65457,-565.006,-531.386)">
        <path d="M639.83,646.63C641.838,649.807 642.62,653.609 642.03,657.32L642.03,657.44L640.41,657.44C640.735,656.096 640.735,654.694 640.41,653.35C640.102,651.785 639.226,650.388 637.95,649.43L636.38,657.43L634.87,657.43L636.38,646.63L639.83,646.63Z" style="fill:rgb(246,185,173);fill-rule:nonzero;"/>
    </g>
    <g transform="matrix(1.65457,0,0,1.65457,-565.006,-531.386)">
        <path d="M649,631.09C649,631.09 649.63,630.83 649.36,629.92C649.09,629.01 648,629.32 648,629.32C648,629.32 647.33,630.32 647.59,630.65C647.85,630.98 649,631.09 649,631.09Z" style="fill:rgb(246,185,173);fill-rule:nonzero;"/>
    </g>
    <g transform="matrix(1.65457,0,0,1.65457,-565.006,-531.386)">
        <path d="M639.75,639.83C639.75,639.83 647.84,637.21 648.99,631.09L647.49,630.63C647.49,630.63 641.49,637.28 639.01,637.33C636.53,637.38 639.75,639.83 639.75,639.83Z" style="fill:rgb(255,82,82);fill-rule:nonzero;"/>
    </g>
    <g transform="matrix(1.65457,0,0,1.65457,-565.006,-531.386)">
        <path d="M648.71,631.1L648.96,631.18C647.81,637.3 639.72,639.92 639.72,639.92L639.58,639.81C640.53,639.47 647.64,636.81 648.71,631.1Z" style="fill:white;fill-opacity:0.2;fill-rule:nonzero;"/>
    </g>
    <g opacity="0.2">
        <g transform="matrix(1.65457,0,0,1.65457,-565.006,-531.386)">
            <path d="M637.58,649.42L636.01,657.42L636.36,657.42L637.88,649.64C637.784,649.562 637.684,649.488 637.58,649.42Z" style="fill:white;fill-rule:nonzero;"/>
        </g>
        <g transform="matrix(1.65457,0,0,1.65457,-565.006,-531.386)">
            <path d="M639.83,646.63L639.48,646.63C641.488,649.807 642.27,653.609 641.68,657.32L641.68,657.44L642,657.44L642,657.32C642.599,653.612 641.828,649.81 639.83,646.63Z" style="fill:white;fill-rule:nonzero;"/>
        </g>
    </g>
    <g transform="matrix(1.65457,0,0,1.65457,-565.006,-531.386)">
        <path d="M648.82,631C648.82,631 649.45,630.74 649.18,629.83C649.115,629.571 648.929,629.358 648.68,629.26C649.004,629.319 649.266,629.561 649.35,629.88C649.62,630.78 648.99,631.05 648.99,631.05C648.651,631.023 648.316,630.959 647.99,630.86C648.262,630.929 648.54,630.976 648.82,631Z" style="fill:white;fill-opacity:0.2;fill-rule:nonzero;"/>
    </g>
    <g transform="matrix(1.65457,0,0,1.65457,-565.006,-531.386)">
        <path d="M635.54,646.51L632.26,653.43C634.177,653.525 636.085,653.755 637.97,654.12C641.6,654.81 643.33,653.12 643.33,653.12L641,646.51L635.54,646.51Z" style="fill:rgb(38,50,56);fill-rule:nonzero;"/>
    </g>
    <g transform="matrix(1.65457,0,0,1.65457,-565.006,-531.386)">
        <path d="M636.41,657.4C636.41,657.4 638.14,657.75 637.79,658.4L634.68,658.4L634.85,657.4L636.41,657.4Z" style="fill:rgb(255,82,82);fill-rule:nonzero;"/>
    </g>
    <g transform="matrix(1.65457,0,0,1.65457,-565.006,-531.386)">
        <path d="M641.94,657.4C641.94,657.4 643.67,657.75 643.32,658.4L640.21,658.4L640.38,657.4L641.94,657.4Z" style="fill:rgb(255,82,82);fill-rule:nonzero;"/>
    </g>
    <g transform="matrix(1.65457,0,0,1.65457,-565.006,-531.386)">
        <path d="M640.73,631.12C640.73,631.12 636.58,637 638.48,639.42L631.05,639.25C631.05,639.25 633.12,625.93 640.73,631.12Z" style="fill:rgb(252,204,99);fill-rule:nonzero;"/>
    </g>
    <g transform="matrix(1.65457,0,0,1.65457,-565.006,-531.386)">
        <path d="M640.73,631.12C639.878,630.489 638.88,630.083 637.83,629.94C638.544,630.169 639.218,630.506 639.83,630.94C640.442,631.374 635.68,636.82 637.58,639.24L631.04,639.09L631.04,639.24L638.47,639.41C636.58,637 640.73,631.12 640.73,631.12Z" style="fill:white;fill-opacity:0.2;fill-rule:nonzero;"/>
    </g>
    <g transform="matrix(1.65457,0,0,1.65457,-565.006,-531.386)">
        <path d="M641,646.51L640.48,646.51L642.82,653.08C641.852,653.875 640.632,654.301 639.38,654.28C640.819,654.421 642.257,653.99 643.38,653.08L641,646.51Z" style="fill:white;fill-opacity:0.2;fill-rule:nonzero;"/>
    </g>
    <g transform="matrix(1.65457,0,0,1.65457,-565.006,-531.386)">
        <path d="M636.41,657.4L636.06,657.4C636.06,657.4 637.79,657.75 637.44,658.4L637.79,658.4C638.14,657.74 636.41,657.4 636.41,657.4Z" style="fill:white;fill-opacity:0.2;fill-rule:nonzero;"/>
    </g>
    <g transform="matrix(1.65457,0,0,1.65457,-565.006,-531.386)">
        <path d="M641.94,657.4L641.59,657.4C641.59,657.4 643.32,657.75 642.97,658.4L643.32,658.4C643.67,657.74 641.94,657.4 641.94,657.4Z" style="fill:white;fill-opacity:0.2;fill-rule:nonzero;"/>
    </g>
    <g transform="matrix(1,0,0,1,-68.7438,-13.5679)">
        <path d="M725.52,400.93L715.88,347.09L746.41,345.6L746.41,400.93L767.3,400.93L788.19,341.47" style="fill:none;fill-rule:nonzero;stroke:rgb(179,179,179);stroke-width:1px;"/>
    </g>
    <g transform="matrix(1,0,0,1,-68.7438,-13.5679)">
        <path d="M788.19,422.6C788.19,407.533 775.957,395.3 760.89,395.3L731.93,395.3C716.863,395.3 704.63,407.533 704.63,422.6L704.63,427.46C704.63,442.527 716.863,454.76 731.93,454.76L760.89,454.76C775.957,454.76 788.19,442.527 788.19,427.46L788.19,422.6Z" style="fill:rgb(108,99,255);"/>
    </g>
    <g transform="matrix(1,0,0,1,-227.244,-107.638)">
        <path d="M917.77,489.37L893.67,489.37C877.379,489.419 863.989,502.809 863.94,519.1C863.94,519.78 863.94,520.44 864.02,521.1C865.114,505.607 878.138,493.43 893.67,493.38L917.77,493.38C933.302,493.43 946.326,505.607 947.42,521.1C947.42,520.44 947.5,519.77 947.5,519.1C947.451,502.809 934.061,489.419 917.77,489.37Z" style="fill-opacity:0.05;fill-rule:nonzero;"/>
    </g>
    <g transform="matrix(1,0,0,1,-68.7438,-13.5679)">
        <path d="M765.66,413.01L757.77,406.82L738.69,430.99L728.43,423.04L722.01,431.2L736.93,442.6L740.63,445.57L765.66,413.01Z" style="fill:url(#_Linear5);fill-rule:nonzero;"/>
    </g>
    <g transform="matrix(1,0,0,1,-68.7438,-13.5679)">
        <path d="M765.08,412.86L757.92,407.38L738.97,432.1L728.44,424.02L722.95,431.18L737.06,441.98L740.68,444.69L765.08,412.86Z" style="fill:rgb(105,240,174);fill-rule:nonzero;"/>
    </g>
    <g transform="matrix(1,0,0,1,-227.244,-107.638)">
        <path d="M1031.67,328.46C1031.67,397.12 974.31,452.78 913.24,452.78C852.17,452.78 789.58,397.12 789.58,328.46C789.58,259.8 852.17,204.14 913.25,204.14C974.33,204.14 1031.67,259.8 1031.67,328.46Z" style="fill:url(#_Linear6);fill-rule:nonzero;"/>
    </g>
    <g transform="matrix(1,0,0,1,-227.244,-107.638)">
        <path d="M1026,328.46C1026,393.91 971.33,446.96 913.11,446.96C854.89,446.96 795.23,393.91 795.23,328.46C795.23,263.01 854.91,210 913.12,210C971.33,210 1026,263 1026,328.46Z" style="fill:rgb(108,99,255);fill-rule:nonzero;"/>
    </g>
    <g transform="matrix(1,0,0,1,-68.7438,-13.5679)">
        <rect x="736.53" y="357.05" width="26.19" height="9.15" style="fill:rgb(108,99,255);"/>
    </g>
    <g opacity="0.2">
        <g transform="matrix(1,0,0,1,-227.244,-107.638)">
            <path d="M913.12,209.55C911.73,209.55 910.35,209.55 908.96,209.65C965.59,212.1 1017.69,264.16 1017.69,328.05C1017.69,391.94 965.59,444 909,446.45C910.39,446.51 911.78,446.55 913.16,446.55C971.37,446.55 1026.05,393.5 1026.05,328.05C1026.05,262.6 971.33,209.55 913.12,209.55Z" style="fill-rule:nonzero;"/>
        </g>
    </g>
    <g opacity="0.2">
        <g transform="matrix(1,0,0,1,-227.244,-107.638)">
            <path d="M801.9,328.46C801.9,263.95 859.9,211.46 917.28,210L914.79,210C856.58,210 796.91,263.05 796.91,328.5C796.91,393.95 856.57,447 914.78,447L917.27,447C859.87,445.44 801.9,393 801.9,328.46Z" style="fill:white;fill-rule:nonzero;"/>
        </g>
    </g>
    <g transform="matrix(1,0,0,1,-68.7438,-13.5679)">
        <rect x="713.25" y="336.26" width="75.26" height="24.53" style="fill:rgb(108,99,255);"/>
    </g>
    <g transform="matrix(1,0,0,1,-227.244,-107.638)">
        <path d="M871.75,218.59C871.75,218.59 782.36,320.77 871.75,438.33L901.27,438.23C901.27,438.23 819.78,341.11 897.53,211.23L883,214.54L871.75,218.59Z" style="fill:white;fill-opacity:0.2;fill-rule:nonzero;"/>
    </g>
    <g transform="matrix(1,0,0,1,-227.244,-107.638)">
        <path d="M949.5,217C949.5,217 1038.89,320.74 949.5,438.3L919.98,438.2C919.98,438.2 1001.47,340.2 923.72,210.35L938.27,213.26L949.5,217Z" style="fill:white;fill-opacity:0.2;fill-rule:nonzero;"/>
    </g>
    <defs>
        <linearGradient id="_Linear1" x1="0" y1="0" x2="1" y2="0" gradientUnits="userSpaceOnUse" gradientTransform="matrix(1.05969e-14,-173.06,173.06,1.05969e-14,600,803.52)"><stop offset="0" style="stop-color:rgb(128,128,128);stop-opacity:0.25"/><stop offset="0.54" style="stop-color:rgb(128,128,128);stop-opacity:0.12"/><stop offset="1" style="stop-color:rgb(128,128,128);stop-opacity:0.1"/></linearGradient>
        <linearGradient id="_Linear2" x1="0" y1="0" x2="1" y2="0" gradientUnits="userSpaceOnUse" gradientTransform="matrix(9.93801e-15,-162.3,162.3,9.93801e-15,199.26,162.3)"><stop offset="0" style="stop-color:rgb(128,128,128);stop-opacity:0.25"/><stop offset="0.54" style="stop-color:rgb(128,128,128);stop-opacity:0.12"/><stop offset="1" style="stop-color:rgb(128,128,128);stop-opacity:0.1"/></linearGradient>
        <linearGradient id="_Linear3" x1="0" y1="0" x2="1" y2="0" gradientUnits="userSpaceOnUse" gradientTransform="matrix(2.44929e-18,-0.04,0.04,2.44929e-18,610.98,635.26)"><stop offset="0" style="stop-color:rgb(128,128,128);stop-opacity:0.25"/><stop offset="0.54" style="stop-color:rgb(128,128,128);stop-opacity:0.12"/><stop offset="1" style="stop-color:rgb(128,128,128);stop-opacity:0.1"/></linearGradient>
        <linearGradient id="_Linear4" x1="0" y1="0" x2="1" y2="0" gradientUnits="userSpaceOnUse" gradientTransform="matrix(1.82901e-15,-29.87,29.87,1.82901e-15,616.22,664.28)"><stop offset="0" style="stop-color:rgb(128,128,128);stop-opacity:0.25"/><stop offset="0.54" style="stop-color:rgb(128,128,128);stop-opacity:0.12"/><stop offset="1" style="stop-color:rgb(128,128,128);stop-opacity:0.1"/></linearGradient>
        <linearGradient id="_Linear5" x1="0" y1="0" x2="1" y2="0" gradientUnits="userSpaceOnUse" gradientTransform="matrix(0.0880116,-38.7899,38.7899,0.0880116,743.755,445.616)"><stop offset="0" style="stop-color:black;stop-opacity:0.12"/><stop offset="0.55" style="stop-color:black;stop-opacity:0.09"/><stop offset="1" style="stop-color:black;stop-opacity:0.02"/></linearGradient>
        <linearGradient id="_Linear6" x1="0" y1="0" x2="1" y2="0" gradientUnits="userSpaceOnUse" gradientTransform="matrix(1.52248e-14,-248.64,248.64,1.52248e-14,910.63,452.78)"><stop offset="0" style="stop-color:rgb(128,128,128);stop-opacity:0.25"/><stop offset="0.54" style="stop-color:rgb(128,128,128);stop-opacity:0.12"/><stop offset="1" style="stop-color:rgb(128,128,128);stop-opacity:0.1"/></linearGradient>
    </defs>
</svg>
