<svg xmlns="http://www.w3.org/2000/svg" width="62.127" height="78.048" viewBox="0 0 62.127 78.048">
  <g id="earn_medals" transform="translate(-75.38 -13.954)">
    <g id="Group_8" data-name="Group 8" transform="translate(88.902 13.954)">
      <path id="Path_18" data-name="Path 18" d="M220.517,194.515a5.743,5.743,0,0,1-5.614,0l-16.735-9.379a5.741,5.741,0,0,1-2.934-5.008V161.662a5.74,5.74,0,0,1,2.934-5.008l16.735-9.379a5.742,5.742,0,0,1,5.614,0l16.735,9.379a5.74,5.74,0,0,1,2.934,5.008v18.466a5.74,5.74,0,0,1-2.934,5.008Z" transform="translate(-195.235 -146.542)" fill="#529fff" fill-rule="evenodd"/>
    </g>
    <g id="Group_9" data-name="Group 9" transform="translate(95.221 25.541)">
      <path id="Path_19" data-name="Path 19" d="M478.354,240.226a5.738,5.738,0,0,1,1.215,3.533v18.466a5.74,5.74,0,0,1-2.934,5.008L459.9,276.612a5.744,5.744,0,0,1-5.613,0l-13.349-7.482Z" transform="translate(-440.939 -240.226)" fill="#71b0fe" fill-rule="evenodd"/>
    </g>
    <g id="Group_10" data-name="Group 10" transform="translate(75.38 57.926)">
      <path id="Path_20" data-name="Path 20" d="M154.276,136.084a4.017,4.017,0,0,1-3.927,0l-11.708-6.562a4.016,4.016,0,0,1-2.053-3.5V113.1a4.016,4.016,0,0,1,2.053-3.5l11.708-6.562a4.017,4.017,0,0,1,3.927,0l11.708,6.562a4.016,4.016,0,0,1,2.053,3.5v12.919a4.016,4.016,0,0,1-2.053,3.5Z" transform="translate(-136.588 -102.522)" fill="#ffad52" fill-rule="evenodd"/>
    </g>
    <g id="Group_11" data-name="Group 11" transform="translate(82.876 67.12)">
      <path id="Path_21" data-name="Path 21" d="M377.252,534.56a4.014,4.014,0,0,1,.246,1.384v12.919a4.016,4.016,0,0,1-2.052,3.5l-11.708,6.562a4.018,4.018,0,0,1-3.927,0l-6.264-3.511Z" transform="translate(-353.547 -534.56)" fill="#f9bd7b" fill-rule="evenodd"/>
    </g>
    <g id="Group_12" data-name="Group 12" transform="translate(114.603 60.265)">
      <path id="Path_22" data-name="Path 22" d="M112.36,99.111a2.926,2.926,0,0,1-2.86,0l-8.527-4.779a2.925,2.925,0,0,1-1.5-2.552V82.371a2.925,2.925,0,0,1,1.5-2.552l8.527-4.779a2.925,2.925,0,0,1,2.86,0l8.527,4.779a2.925,2.925,0,0,1,1.495,2.552V91.78a2.925,2.925,0,0,1-1.495,2.552Z" transform="translate(-99.478 -74.667)" fill="#d3d3d3" fill-rule="evenodd"/>
    </g>
    <g id="Group_13" data-name="Group 13" transform="translate(121.062 68.165)">
      <path id="Path_23" data-name="Path 23" d="M640.306,541.956v9.214a2.925,2.925,0,0,1-1.495,2.552l-8.527,4.779a2.926,2.926,0,0,1-2.86,0l-3.563-2Z" transform="translate(-623.862 -541.956)" fill="#e4e4e4" fill-rule="evenodd"/>
    </g>
  </g>
</svg>
