<svg id="experience_bar" xmlns="http://www.w3.org/2000/svg" width="232.244" height="40.667" viewBox="0 0 232.244 40.667">
  <path id="Path_27" data-name="Path 27" d="M232.841,51.659a20.333,20.333,0,1,1,0,8.48H81.044a20.334,20.334,0,1,1,0-8.48ZM63.181,64.473H60.328V50.036h-3.5V47.928l6.348-.6Zm195.374-2.3v2.3H247.168V62.51l5.589-6.1a13.669,13.669,0,0,0,1.872-2.441,4.159,4.159,0,0,0,.523-2.016,2.661,2.661,0,0,0-.674-1.819,2.293,2.293,0,0,0-1.813-.766,2.817,2.817,0,0,0-2.219.831,3.419,3.419,0,0,0-.74,2.35h-2.775l-.026-.066a5.031,5.031,0,0,1,1.519-3.887,6.49,6.49,0,0,1,8.148-.183A4.67,4.67,0,0,1,258.019,52a5.265,5.265,0,0,1-.766,2.7,22.463,22.463,0,0,1-2.638,3.371L250.793,62.1l.039.065Z" transform="translate(-40.821 -35.566)" fill-rule="evenodd"/>
</svg>
